<?xml version="1.0" encoding="iso-8859-1"?>
<!-- Generator: Adobe Illustrator 19.2.1, SVG Export Plug-In . SVG Version: 6.00 Build 0)  -->
<svg version="1.1" id="Layer_1" xmlns="http://www.w3.org/2000/svg" xmlns:xlink="http://www.w3.org/1999/xlink" x="0px" y="0px"
	 viewBox="0 0 1224 220" style="enable-background:new 0 0 1224 220;" xml:space="preserve">
<g>
	<path d="M87.369,189.542c-7.929,0-22.245,1.102-35.9-2.423c-0.881,1.542-1.762,2.863-2.423,4.185
		c-1.101,1.763-2.643-0.22-3.304-2.422c-0.881,4.625-0.44,5.946-1.982,6.827c-1.102,0.661-2.423,3.965-3.304,4.185
		c-0.441-1.982-0.661-8.148-0.881-17.399c-11.012-5.946-19.822-16.519-22.245-35.68c5.065,3.084,12.554,5.947,21.584,8.149
		c-0.22-11.232-0.44-23.347-0.881-35.239c-3.524,0-7.268,0.22-11.232,0.44c0,0-11.673-7.048-4.405-23.786
		c0.441-0.441,2.203-1.102,5.506-1.763l-0.22-2.423c0,0,3.744-0.881,9.471-2.422c-0.44-7.709-0.881-14.978-1.322-21.364
		c-2.643,0-4.405-0.44-5.065-0.881c-3.524-2.643-6.828-14.316-3.744-19.602c0,0,2.422-0.44,6.387-1.102
		c-0.221-1.102-0.441-1.982-0.881-2.643c0,0,16.078-6.828,25.549-0.44c20.262-2.203,45.811-3.524,60.788,0.881
		c7.268,5.285,9.03,18.721,9.03,29.292c0,0-1.982,10.132-19.161,19.382c23.787,5.727,43.608,19.161,45.15,47.133
		C155.865,175.227,124.811,189.322,87.369,189.542z M65.345,119.284c-0.661,17.84-1.982,30.394-3.083,38.543
		c21.144,0.66,45.15-3.524,64.312-17.399C126.573,140.428,129.876,120.825,65.345,119.284z M65.565,80.961
		c12.774-4.404,25.548-9.69,32.156-15.196c-2.643-1.542-17.399-0.44-32.376,0.881C65.345,71.711,65.565,76.336,65.565,80.961z"/>
	<path d="M301.002,182.715c-0.661,1.541-2.643,9.03-2.643,9.03l-1.982-1.102c-28.412-8.59-110.343,4.185-128.624,10.131
		c-15.417,4.846-19.822-16.077-13.435-30.394c0.881-0.44,1.762-0.881,2.643-1.321c0.22-40.085,1.102-111.004-2.202-129.945
		c-0.22-0.881,0.881-2.863,3.083-3.304c9.911-2.422,35.68-4.845,33.477,35.46c-1.982,35.68-6.167,75.984-7.708,91.401
		c36.34-4.625,91.622-1.762,114.307,9.691c0.44,0.22-1.101,0-1.101,0l2.863,3.523l-1.982,0.44
		C297.698,176.327,301.442,181.173,301.002,182.715z M196.605,134.48c10.131-25.548,21.144-57.043,25.989-97.128
		c17.84-2.643,28.191-1.982,33.257,1.542c8.59-0.221,16.739,2.643,18.28,12.774c1.982,14.315,8.59,53.739,25.989,99.991
		c-0.22,0-3.524-3.524-3.524-3.524l-1.542,2.423l-2.422-1.321l-1.982-1.321l-2.423,1.982c0,0-0.881-1.982-1.982-3.744
		c-0.661,1.762-3.744,8.369-3.744,8.369l-1.762-1.102c-22.905-6.607-48.454-3.523-67.395-0.22
		c-10.131,1.762-14.316-6.167-14.096-15.638C198.588,136.022,197.927,134.48,196.605,134.48z M260.917,121.927
		c-4.846-11.012-9.25-22.245-13.215-33.037c-3.964,10.132-8.369,19.603-12.995,28.632
		C243.738,118.183,252.988,119.725,260.917,121.927z"/>
	<path d="M355.178,191.304c-29.733,0-60.788-22.024-59.246-70.258c2.863-84.354,95.586-94.485,94.926-66.294
		c-0.22,9.69-5.286,24.888-12.334,27.751c-35.019-17.84-64.091,14.536-64.972,41.847c-0.661,13.875,16.298,33.478,40.084,33.478
		c28.191,0,49.555-27.972,49.775-39.204c0.221-8.148,4.846,0.221,4.846,0.221C418.829,157.827,393.721,191.304,355.178,191.304z"/>
	<path d="M475.209,111.796c17.179,17.179,33.257,57.264,27.311,79.288c0.661-20.703-7.929-35.46-7.929-35.46
		s8.589,28.412,5.506,38.103c-0.44-0.66-1.101-1.321-1.101-1.321s-2.423,4.625-3.964,4.846c-1.542,0-6.167,1.101-6.167,1.101
		l-1.982-2.202c-5.065-19.822-24.006-52.198-35.459-65.633c-5.506,3.523-10.792,6.827-15.637,9.03
		c-1.101,18.28-2.203,31.274-2.203,31.274s-1.542,2.423-3.744,6.387c-1.542,1.763-4.625,9.03-4.625,9.03s-2.863,0.881-4.405,2.644
		c-0.44,0.66-1.982,4.404-1.982,4.404h-1.762l-2.643,4.405c0,0-1.762-1.321-2.203-1.102c-1.101,0.661-1.762,3.084-2.643,3.084
		c-1.762-8.811-2.643-128.844-8.149-153.731c0-0.881,0.881-2.863,3.304-3.304c9.25-2.643,35.019-5.727,33.918,33.037
		c-0.22,10.571-0.661,21.144-1.102,31.495c12.995-11.013,32.597-32.377,40.525-64.312c6.607-11.673,35.239,5.947,31.936,19.382
		C506.264,78.538,491.728,96.819,475.209,111.796z"/>
	<path d="M662.192,77.878c-13.655,28.632-22.024,62.329-22.465,109.241c0,0-8.369,3.084-16.958,1.982
		c-5.286,1.102-11.233-0.22-15.858-7.048c-11.232-29.733-17.179-63.431-21.804-89.42c-8.149,24.447-20.923,65.413-22.906,93.604
		c0,0-12.333,4.625-19.161-1.541l-0.661,0.881c-0.881,0.881-3.524-5.727-3.524-5.727s0.22,7.708-0.22,7.708
		c-0.881,0-1.762-0.44-2.203-1.981c-2.643-12.774-16.519-105.058-31.936-134.57c-4.405-1.321-7.929-4.846-4.845-7.048
		c0,0,42.507-25.328,50.876,30.834c2.203,14.757,3.744,29.293,4.625,42.287c7.489-20.482,16.078-40.745,24.227-54.18
		c-0.22-1.102-0.661-2.203-0.881-3.084c-1.762-0.44-2.423-2.643-0.22-4.185c11.673-3.964,21.584-3.964,24.227,4.846
		c3.964,12.774,7.268,36.561,12.995,62.109c10.792-34.579,24.667-66.515,39.204-92.283c0.881-0.22,1.101,2.202,1.101,2.202
		l2.863-1.762c0,0,1.542,3.524,2.423,4.405c1.762,1.321,7.269,3.083,7.929,3.964C670.781,41.317,676.067,48.806,662.192,77.878z"/>
	<path d="M757.335,184.917c-0.44,1.542-2.423,9.03-2.423,9.03l-1.982-1.102c-23.566-3.304-66.514,1.762-84.794,7.709
		c-15.417,5.065-19.822-16.078-13.435-30.395c23.125-13.435,92.723-7.488,99.551,4.405c0.439,0.44-1.102-0.22-1.102-0.22
		l3.084,3.744l-1.982,0.44C754.252,178.53,757.775,183.375,757.335,184.917z M653.82,138.445
		c10.352-25.549,21.143-57.044,25.989-97.128c18.061-2.644,28.191-1.982,33.258,1.541c8.589-0.22,16.738,2.644,18.279,12.774
		c1.982,14.096,8.59,53.74,25.989,99.991c-0.22,0-3.524-3.523-3.524-3.523l-1.541,2.423l-2.423-1.542l-1.982-1.102l-2.423,1.982
		c0,0-0.881-1.982-1.982-3.964c-0.66,1.762-3.523,8.589-3.523,8.589l-1.982-1.321c-22.686-6.387-48.453-3.523-67.395,0
		c-10.131,1.762-14.316-6.167-14.096-15.638C655.802,139.987,655.141,138.445,653.82,138.445z M718.131,125.892
		c-4.845-11.232-9.25-22.466-13.215-33.037c-3.964,10.131-8.369,19.602-12.994,28.632
		C700.952,121.927,710.203,123.688,718.131,125.892z"/>
	<path d="M842.567,68.407c-25.989,0-60.788,11.013-60.788,12.554c-0.439,3.965,81.711,16.959,78.628,66.734
		c-2.423,40.746-29.733,49.556-60.127,49.556s-50.216-31.495-49.114-48.675c0.881-17.179,4.625-28.191,4.625-28.191
		s-0.881,8.811-0.661,21.584c0.22-10.792,2.644-24.006,2.644-24.006l3.523-3.965l1.102,2.643
		c-3.965,68.057,78.848,42.287,79.508,31.716c1.102-19.161-94.484-25.328-92.282-63.431c1.101-19.161,3.524-18.28,3.524-18.28
		c1.32-24.007,74.662-29.513,81.931-29.513C835.079,37.133,854.461,47.925,842.567,68.407z"/>
	<path d="M967.003,80.521c-5.947,46.912-5.507,89.199-5.507,89.199l-0.881,2.203l-1.321-0.221l-1.321,6.828l-1.542-0.221
		l-1.542-0.44l-3.083,13.435l-2.423-1.981l-1.102,1.981l-2.643,0.221c0,0-0.66,3.304-1.542,3.524c-0.44,0.22-1.101,0.22-1.541,0.22
		c-4.846-12.334-7.929-29.513-9.691-48.454c-0.881,0.661-1.981,1.102-2.863,1.321c-8.81,0-25.988,3.304-38.542,5.507
		c-0.661,9.911-1.102,16.077-1.102,16.077l-1.542-1.981l-1.101,5.726l-2.644,0.661l-2.863,8.369l-6.388,3.965l-3.744,5.286
		l-1.981-1.322l-1.763,5.947c0,0-1.981,2.423-2.862,2.643c-1.542-9.03-1.763-131.707-7.048-157.255
		c-0.221-0.881,0.66-2.863,3.083-3.524c9.69-3.083,35.68-7.268,34.358,33.257c-0.44,16.959-1.321,35.02-2.202,51.098
		c12.113-1.542,25.988-1.542,37.662-0.44c-1.542-34.799,0.44-69.378,2.422-81.932c9.471-4.185,31.716-4.185,35.239,6.167
		C970.967,52.55,969.426,61.8,967.003,80.521z"/>
	<path d="M1096.277,138.666c0,1.541-4.185,5.506-4.185,5.506l-1.101,2.643l-8.37,3.965l6.167,0.66c0,0-6.167,2.423-9.69,5.286
		c-3.744,2.863-4.846,5.946-7.709,7.048c-2.202,0-48.895,10.352-93.163,31.936c-6.828,3.304-19.382-25.549-8.37-31.274
		c1.102-0.661,2.644-1.322,4.626-1.982c0-37.662,1.101-103.956-2.863-118.052c0,0,8.589-3.523,17.399-2.643
		c23.346-3.084,73.782-1.982,88.098-1.762c-0.44,1.541-0.22,5.726-0.22,5.726s-3.965,1.763-6.828,4.846
		c-0.66,0.661-5.065,3.744-5.065,3.744l4.405,0.221l-7.269,3.744l-0.22,2.643c0,0-8.811,3.744-10.132,4.185
		c-1.102,0-23.566,3.744-42.948,6.828c0,1.762-0.22,3.523-0.22,5.285c-0.221,5.727-0.661,11.013-1.102,16.299
		c19.382-2.423,43.389-3.744,55.282-3.524c0,1.321-1.763,4.625-1.763,4.625l-0.881,5.286l-6.827,3.744l2.863,0.221l-7.269,4.625
		l0.221,2.202l-7.929,1.982l-1.542,2.643c0,0-7.929,3.744-11.013,4.846c-1.321,0-13.435,3.523-24.447,6.167
		c-1.101,11.673-2.422,20.703-3.304,26.209C1030.645,142.851,1070.949,133.82,1096.277,138.666z"/>
	<path d="M1206.84,123.909c-0.221,57.044-64.752,65.633-85.235,65.633c-1.982,0-3.964-0.22-6.167-0.44l-1.321,2.863l-3.964-0.22
		l-2.423,5.946l-2.423-0.661c0,0-1.542,2.644-1.982,2.644c-0.22-1.542-0.44-6.607-0.66-13.655
		c-14.757-5.507-31.055-19.161-31.055-51.979c0,0,3.744-7.708,3.744,0.221c0,5.946,10.792,14.536,26.429,18.721
		c-0.66-25.549-1.541-55.942-3.083-76.865c-5.506,1.101-11.013,2.202-16.519,3.964c-7.268-3.304-14.757-26.209-6.387-34.799
		C1083.942,36.251,1207.5,19.072,1206.84,123.909z M1122.266,155.404c-0.221-13.215,0-27.972,0-27.972l-1.982,27.972
		c0.221,0,0.661,0,1.102,0C1121.604,155.404,1121.825,155.404,1122.266,155.404z M1128.873,76.336
		c-0.44,25.989-1.763,60.788-2.644,78.848c27.751-2.202,61.009-22.244,62.109-38.983
		C1189.22,102.104,1162.791,81.622,1128.873,76.336z"/>
</g>
</svg>
